<svg xmlns="http://www.w3.org/2000/svg" width="18" height="18" viewBox="0 0 18 18">
    <g fill="none" fill-rule="evenodd">
        <g fill="#CFD7DD" fill-rule="nonzero">
            <g>
                <g>
                    <path d="M38.005 23.528s-1.03-1.418-1.933-1.805c-2.834-1.547-6.312-.516-7.858 2.192-.902 1.547-1.03 3.352-.386 4.9L21 35.518V39h3.22v-1.934h1.933v-1.934h2.576l2.448-2.966c2.963 1.16 6.312-.386 7.472-3.352.644-1.805.386-3.739-.644-5.286zm-3.22 3.094c-1.031 0-1.804-.773-1.804-1.805 0-1.031.773-1.805 1.803-1.805 1.03-.129 1.804.774 1.804 1.805 0 1.032-.773 1.805-1.804 1.805z" transform="translate(-681 -21) translate(660)"/>
                </g>
            </g>
        </g>
    </g>
</svg>
