<svg xmlns="http://www.w3.org/2000/svg" width="21" height="20" viewBox="0 0 21 20">
    <g fill="none" fill-rule="evenodd">
        <g fill="#415E78" fill-rule="nonzero">
            <g>
                <g>
                    <path d="M37.083 27.708c0 1.704-1.391 3.085-3.108 3.085-1.718 0-3.11-1.38-3.11-3.085 0-1.704 1.392-3.085 3.11-3.085 1.717 0 3.108 1.38 3.108 3.085zm-6.988 5.39s.923-.77 2.33-.764l3.106-.006c1.406 0 2.329.77 2.329.77S40.19 34.64 40.19 40H27.765s0-5.151 2.33-6.902zm-.776-10.013c0 1.704-1.391 3.085-3.109 3.085-1.717 0-3.109-1.38-3.109-3.085 0-1.704 1.392-3.085 3.109-3.085 1.718 0 3.109 1.38 3.109 3.085zm.825 7.686c-3.414.578-4.029 4.608-4.029 4.608H20s0-5.153 2.33-6.902c0 0 .922-.77 2.329-.765l3.105-.006c.626 0 .38-.078.777.091 0 0-.048 2.349 1.601 2.974h.002z" transform="translate(-360 -20) translate(340)"/>
                </g>
            </g>
        </g>
    </g>
</svg>
