<svg xmlns="http://www.w3.org/2000/svg" width="22" height="20" viewBox="0 0 22 20">
    <g fill="none" fill-rule="evenodd">
        <g fill="#CFD7DD" fill-rule="nonzero">
            <g>
                <g>
                    <path d="M39.126 25.694h-2.787v-4.161c0-.843-.695-1.533-1.548-1.533H20.548c-.853 0-1.548.69-1.548 1.533v11.236c0 .847.695 1.537 1.548 1.537h2.787v4.157c0 .847.695 1.537 1.548 1.537h14.243c.853 0 1.548-.69 1.548-1.537V27.227c0-.843-.695-1.533-1.548-1.533zm-1.343 1.394v1.48H36.34V27.09h1.444v-.002zM31.96 21.35h1.49v1.48h-1.49v-1.48zM20.485 32.743V24.29h14.374v8.452H20.485zm18.703 5.698h-14.37v-4.134h9.971c.853 0 1.548-.69 1.548-1.537v-2.784h2.85v8.457-.002z" transform="translate(-279 -20) translate(260)"/>
                </g>
            </g>
        </g>
    </g>
</svg>
