<svg xmlns="http://www.w3.org/2000/svg" width="296" height="26" viewBox="0 0 296 26">
    <g fill="none" fill-rule="evenodd">
        <path fill="#415E78" fill-rule="nonzero" d="M44.115 24.38a2.56 2.56 0 0 0 1.88-.775 2.56 2.56 0 0 0 .774-1.88v-18.8a2.56 2.56 0 0 0-.774-1.88 2.56 2.56 0 0 0-1.88-.775c-.627 0-1.253.258-1.88.774-2.396 2.102-4.451 3.742-6.166 4.922-1.714 1.18-3.262 2.064-4.644 2.654-1.383.59-2.692.95-3.927 1.078a38.703 38.703 0 0 1-4.008.194 34.62 34.62 0 0 1-4.037-.221c-1.253-.148-2.59-.516-4.009-1.106-1.42-.59-2.986-1.475-4.7-2.654-1.714-1.18-3.751-2.802-6.11-4.867a5.81 5.81 0 0 0-.885-.552A2.195 2.195 0 0 0 2.754.27a2.56 2.56 0 0 0-1.88.774 2.56 2.56 0 0 0-.775 1.88v18.801c0 .737.258 1.364.774 1.88a2.56 2.56 0 0 0 1.88.774 2.56 2.56 0 0 0 1.88-.774 2.56 2.56 0 0 0 .775-1.88V8.62c1.659 1.327 3.235 2.433 4.728 3.318a26.851 26.851 0 0 0 4.423 2.129c1.456.534 2.912.912 4.369 1.133 1.456.221 2.976.332 4.562.332 1.474 0 2.93-.11 4.368-.332a22.524 22.524 0 0 0 4.34-1.133c1.457-.535 2.95-1.244 4.48-2.13 1.53-.884 3.124-1.99 4.783-3.317v13.105c0 .737.258 1.364.774 1.88a2.56 2.56 0 0 0 1.88.774zm-20.625.774c.958 0 1.769-.332 2.433-.996.663-.663.995-1.474.995-2.433 0-.958-.332-1.77-.995-2.433-.664-.663-1.475-.995-2.433-.995-.959 0-1.77.332-2.433.995-.664.664-.996 1.475-.996 2.433 0 .959.332 1.77.996 2.433.663.664 1.474.996 2.433.996zm119.439-.775a2.56 2.56 0 0 0 1.88-.774 2.56 2.56 0 0 0 .774-1.88 2.56 2.56 0 0 0-.774-1.88 2.56 2.56 0 0 0-1.88-.774H109.75c-.553 0-1.041-.203-1.465-.608-.424-.406-.636-.885-.636-1.438v-14.1c0-.738-.267-1.364-.802-1.88-.534-.517-1.152-.775-1.852-.775a2.56 2.56 0 0 0-1.88.774 2.56 2.56 0 0 0-.774 1.88v14.101c0 1.032.202 1.99.608 2.875.405.885.95 1.66 1.631 2.323a7.67 7.67 0 0 0 2.406 1.576c.921.387 1.898.58 2.93.58h33.012zm41.638 0c1.585 0 3.004-.368 4.258-1.106a11.02 11.02 0 0 0 3.207-2.847 12.92 12.92 0 0 0 2.018-3.871c.46-1.42.691-2.83.691-4.23 0-1.364-.22-2.747-.663-4.147a13.225 13.225 0 0 0-1.908-3.816 11.079 11.079 0 0 0-3.014-2.848C187.976.76 186.631.344 185.12.27h-25.215c-1.585 0-3.005.369-4.258 1.106a11.02 11.02 0 0 0-3.207 2.848 12.92 12.92 0 0 0-2.018 3.87c-.461 1.42-.692 2.83-.692 4.23 0 1.365.221 2.747.664 4.148a13.225 13.225 0 0 0 1.908 3.815 11.079 11.079 0 0 0 3.013 2.848c1.18.756 2.525 1.17 4.037 1.244h25.215zm-1.161-5.308h-22.34c-1.29 0-2.332-.23-3.124-.691-.793-.461-1.42-1.023-1.88-1.687a5.916 5.916 0 0 1-.94-2.184 10.725 10.725 0 0 1-.25-2.184c0-.664.084-1.392.25-2.184.166-.793.479-1.521.94-2.185.46-.663 1.087-1.225 1.88-1.686.792-.46 1.834-.691 3.124-.691h22.34c1.253 0 2.285.23 3.096.691.811.46 1.447 1.023 1.908 1.686.46.664.774 1.392.94 2.185.166.792.249 1.52.249 2.184 0 .663-.083 1.391-.25 2.184a5.916 5.916 0 0 1-.94 2.184c-.46.664-1.096 1.226-1.907 1.687-.81.46-1.843.691-3.096.691zm52.31 5.308c1.511-.073 2.857-.488 4.036-1.244a11.079 11.079 0 0 0 3.014-2.848 13.225 13.225 0 0 0 1.908-3.815c.442-1.4.663-2.783.663-4.147 0-1.401-.23-2.811-.691-4.23a12.92 12.92 0 0 0-2.018-3.871 11.02 11.02 0 0 0-3.208-2.848C238.167.64 236.748.27 235.163.27h-32.238a2.56 2.56 0 0 0-1.88.774 2.56 2.56 0 0 0-.774 1.88v18.801c0 .737.258 1.364.774 1.88a2.56 2.56 0 0 0 1.88.774h32.79zM234 19.071H205.58V5.579h28.422c1.254 0 2.286.23 3.097.691.811.46 1.447 1.023 1.908 1.686.46.664.774 1.392.94 2.185.166.792.249 1.52.249 2.184 0 .663-.083 1.391-.25 2.184a5.916 5.916 0 0 1-.94 2.184c-.46.664-1.096 1.226-1.907 1.687-.811.46-1.843.691-3.097.691zm39.15-3.539c1.77 0 3.428-.166 4.977-.498 1.548-.331 3.133-.894 4.755-1.686 1.622-.793 3.345-1.862 5.17-3.207 1.825-1.346 3.899-3.05 6.221-5.115.295-.258.544-.572.747-.94.202-.369.304-.756.304-1.161a2.56 2.56 0 0 0-.774-1.88 2.56 2.56 0 0 0-1.88-.775c-.627 0-1.254.258-1.88.774-2.397 2.102-4.397 3.742-6 4.922-1.604 1.18-3.032 2.064-4.286 2.654-1.253.59-2.433.95-3.539 1.078-1.106.13-2.377.194-3.815.194-1.438 0-2.728-.074-3.87-.221-1.144-.148-2.35-.516-3.623-1.106-1.271-.59-2.71-1.475-4.313-2.654-1.603-1.18-3.585-2.802-5.944-4.867a5.81 5.81 0 0 0-.885-.552 2.195 2.195 0 0 0-.995-.222 2.56 2.56 0 0 0-1.88.774 2.56 2.56 0 0 0-.774 1.88c0 .406.101.793.304 1.162.203.368.451.682.746.94 2.36 2.064 4.442 3.77 6.249 5.115 1.806 1.345 3.502 2.423 5.087 3.234 1.585.811 3.161 1.374 4.728 1.687 1.567.313 3.29.47 5.17.47zm0 9.622c.958 0 1.77-.332 2.433-.996.664-.663.995-1.474.995-2.433 0-.958-.331-1.77-.995-2.433-.664-.663-1.475-.995-2.433-.995-.958 0-1.77.332-2.433.995-.664.664-.995 1.475-.995 2.433 0 .959.331 1.77.995 2.433.664.664 1.475.996 2.433.996z"/>
        <g stroke-linecap="round" stroke-width="5.12">
            <path stroke="#F8B300" d="M58.57 2.819h32.947"/>
            <path stroke="#415E78" d="M54.976 12.403h39.537"/>
            <path stroke="#F8B300" d="M58.57 21.988h32.947"/>
        </g>
    </g>
</svg>