<svg xmlns="http://www.w3.org/2000/svg" width="21" height="24" viewBox="0 0 21 24">
    <g fill="none" fill-rule="evenodd">
        <g fill="#415E78" fill-rule="nonzero">
            <g>
                <g>
                    <path d="M169.5 30c1.656 0 2.999-1.343 2.999-3H166.5c0 1.657 1.343 3 2.999 3zm10.096-7.018c-.905-.973-2.6-2.437-2.6-7.232 0-3.642-2.554-6.558-5.997-7.273V7.5c0-.828-.671-1.5-1.499-1.5-.828 0-1.5.672-1.5 1.5v.977c-3.442.715-5.996 3.63-5.996 7.273 0 4.795-1.695 6.26-2.6 7.232-.282.303-.406.664-.404 1.018.005.769.608 1.5 1.505 1.5h17.99c.897 0 1.5-.731 1.505-1.5.002-.354-.122-.716-.404-1.018z" transform="translate(-1313 -18) translate(1154 12)"/>
                </g>
            </g>
        </g>
    </g>
</svg>
