<svg xmlns="http://www.w3.org/2000/svg" width="26" height="20" viewBox="0 0 26 20">
    <g fill="none" fill-rule="evenodd">
        <g fill="#CFD7DD" fill-rule="nonzero">
            <g>
                <g>
                    <path d="M37.08 28.482l-.322.56c-.117.208-.368.294-.592.212-.462-.173-.886-.42-1.258-.73-.18-.148-.228-.41-.11-.614l.321-.561c-.27-.314-.482-.678-.623-1.074h-.647c-.235 0-.44-.168-.478-.404-.079-.47-.083-.964 0-1.454.039-.235.243-.407.478-.407h.647c.141-.396.353-.76.623-1.074l-.321-.56c-.118-.205-.075-.467.11-.616.372-.31.8-.557 1.258-.73.224-.081.475.005.592.213l.322.56c.412-.074.831-.074 1.243 0l.321-.56c.118-.208.369-.294.592-.212.463.172.887.42 1.26.729.18.149.226.411.109.615l-.322.56c.27.314.483.679.624 1.075h.647c.235 0 .439.168.478.403.079.47.082.965 0 1.454-.04.236-.243.408-.478.408h-.647c-.141.396-.353.76-.624 1.074l.322.56c.117.204.074.467-.11.616-.372.31-.8.556-1.259.729-.223.082-.474-.004-.592-.212l-.321-.56c-.408.074-.831.074-1.243 0zm-.412-2.305c1.51 1.16 3.231-.56 2.07-2.07-1.51-1.163-3.23.561-2.07 2.07zm-4.52 6.032l1.32.659c.397.227.57.709.412 1.14-.349.949-1.035 1.819-1.67 2.58-.29.348-.792.434-1.188.207l-1.141-.659c-.627.537-1.357.965-2.153 1.243v1.317c0 .455-.325.846-.772.925-.965.164-1.976.172-2.976 0-.451-.079-.784-.467-.784-.925v-1.317c-.796-.282-1.526-.706-2.153-1.243l-1.141.655c-.392.227-.898.141-1.188-.208-.635-.76-1.306-1.63-1.655-2.575-.157-.427.016-.91.412-1.14l1.306-.659c-.153-.819-.153-1.662 0-2.485l-1.306-.662c-.396-.227-.573-.71-.412-1.137.35-.948 1.02-1.818 1.655-2.579.29-.349.792-.435 1.188-.208l1.14.659c.628-.537 1.358-.964 2.154-1.243v-1.32c0-.451.321-.843.768-.921.965-.165 1.98-.173 2.98-.004.451.078.784.466.784.925v1.317c.796.282 1.526.705 2.153 1.242l1.14-.658c.393-.228.899-.142 1.189.207.635.76 1.302 1.63 1.65 2.58.158.426.005.909-.391 1.14l-1.322.658c.153.823.153 1.666 0 2.49zm-4.612.827c2.321-3.018-1.125-6.463-4.144-4.143-2.322 3.018 1.125 6.463 4.144 4.143zm9.544 7.161l-.322.56c-.117.208-.368.294-.592.212-.462-.172-.886-.42-1.258-.729-.18-.149-.228-.411-.11-.615l.321-.56c-.27-.314-.482-.679-.623-1.075h-.647c-.235 0-.44-.168-.478-.403-.079-.47-.083-.965 0-1.454.039-.236.243-.408.478-.408h.647c.141-.396.353-.76.623-1.074l-.321-.56c-.118-.204-.075-.467.11-.616.372-.31.8-.556 1.258-.729.224-.082.475.004.592.212l.322.56c.412-.074.831-.074 1.243 0l.321-.56c.118-.208.369-.294.592-.212.463.173.887.42 1.26.73.18.148.226.41.109.614l-.322.561c.27.314.483.678.624 1.074h.647c.235 0 .439.168.478.404.079.47.082.964 0 1.454-.04.235-.243.407-.478.407h-.647c-.141.396-.353.76-.624 1.074l.322.56c.117.205.074.467-.11.616-.372.31-.8.557-1.259.73-.223.081-.474-.005-.592-.213l-.321-.56c-.408.074-.831.074-1.243 0zm-.412-2.309c1.51 1.16 3.231-.56 2.07-2.069-1.51-1.16-3.23.56-2.07 2.07z" transform="translate(-517 -21) translate(500)"/>
                </g>
            </g>
        </g>
    </g>
</svg>
