<svg xmlns="http://www.w3.org/2000/svg" width="24" height="18" viewBox="0 0 24 18">
    <g fill="none" fill-rule="evenodd">
        <g fill="#CFD7DD" fill-rule="nonzero">
            <g>
                <g>
                    <path d="M41.438 36c.309 0 .562.253.562.563v1.875c0 .309-.253.562-.563.562H18.564c-.31 0-.563-.253-.563-.562V21.562c0-.309.253-.562.563-.562h1.875c.309 0 .562.253.562.563V36h20.438zM35.47 25.477l-3.97 2.648-3.998-5.33c-.24-.318-.727-.295-.933.047L22.5 29.625V34.5h18l-4.214-8.803c-.15-.305-.534-.408-.816-.22z" transform="translate(-438 -21) translate(420)"/>
                </g>
            </g>
        </g>
    </g>
</svg>
