<svg xmlns="http://www.w3.org/2000/svg" width="15" height="20" viewBox="0 0 15 20">
    <g fill="none" fill-rule="evenodd">
        <g fill="#CFD7DD" fill-rule="nonzero">
            <g>
                <g>
                    <path d="M25.794 35.165c-.34-.34-.163-.243-.981-.463-.372-.1-.699-.29-.994-.52l-1.772 4.345c-.172.421.149.878.603.86l2.058-.078 1.415 1.496c.313.33.861.227 1.033-.194l2.033-4.985c-.423.236-.893.374-1.38.374-.761 0-1.477-.296-2.015-.835zm11.159 3.362l-1.772-4.345c-.296.23-.622.42-.994.52-.823.22-.642.125-.98.463-.54.539-1.256.835-2.017.835-.486 0-.956-.139-1.38-.374l2.034 4.985c.171.42.72.523 1.032.194l1.416-1.496 2.058.079c.454.017.774-.44.603-.86zm-4.68-4.246c.597-.607.666-.555 1.516-.786.542-.148.966-.58 1.112-1.132.292-1.11.216-.976 1.013-1.787.398-.405.553-.994.407-1.547-.292-1.108-.292-.953 0-2.063.146-.553-.01-1.142-.407-1.546-.797-.812-.721-.678-1.013-1.787-.146-.553-.57-.984-1.112-1.132-1.09-.298-.958-.22-1.756-1.032-.398-.404-.977-.562-1.52-.414-1.088.296-.936.297-2.027 0-.542-.148-1.122.01-1.519.414-.797.812-.666.734-1.755 1.032-.543.148-.967.58-1.112 1.132-.292 1.109-.217.975-1.014 1.787-.397.404-.553.993-.407 1.546.292 1.108.292.953 0 2.063-.145.552.01 1.142.407 1.547.797.811.721.677 1.014 1.787.145.552.57.984 1.112 1.132.874.238.94.2 1.515.786.516.526 1.321.62 1.942.228.507-.322 1.155-.322 1.662 0 .62.393 1.426.298 1.942-.228zm-6.458-6.407c0-2.072 1.65-3.751 3.685-3.751s3.685 1.68 3.685 3.75c0 2.072-1.65 3.751-3.685 3.751s-3.685-1.679-3.685-3.75z" transform="translate(-602 -21) translate(580)"/>
                </g>
            </g>
        </g>
    </g>
</svg>
